<svg width="200" height="21" viewBox="0 0 200 21" fill="none" xmlns="http://www.w3.org/2000/svg">
    <g>
        <path fill-rule="evenodd" clip-rule="evenodd" d="M171.755 0H200V7.94043L196.503 9.96448L200 11.9182V20.6115H175.522V5.32349L171.755 0ZM194.216 5.32349H181.439V7.50752H194.216V5.32349ZM181.439 15.4245V13.2405H194.216V15.4245H181.439Z" fill="#178B76"/>
        <path d="M144.194 0.00366211H149.834V15.1884H162.704V0.00366211H168.381V20.6115H144.194V0.00366211Z" fill="#178B76"/>
        <path d="M131.141 7.55988V0.00366211H136.781V20.6115H131.141V12.983H119.428V20.6115H113.788V5.39062L110.028 0.00366211H119.428V7.55988H131.141Z" fill="#178B76"/>
        <path d="M97.0511 0.00366211H106.451V20.6115H100.811V5.39062L97.0511 0.00366211Z" fill="#178B76"/>
        <path d="M67.2799 0.00366211H75.3782L87.9231 11.2114V0.00366211H93.5988V20.6115H89.3693L76.6795 9.51219V20.6115H71.0395V5.39062L67.2799 0.00366211Z" fill="#178B76"/>
        <path d="M33.692 0.00366211H41.8625L50.4307 9.29523L58.9989 0.00366211H63.4457V20.6115H57.7697V9.946L50.4307 17.9361L43.0556 9.946V20.6115H37.4158V5.31831L33.692 0.00366211Z" fill="#178B76"/>
        <path fill-rule="evenodd" clip-rule="evenodd" d="M7.01841 0L0 7.05304V15.3836L3.64207 20.6115H23.516L30.5343 13.5504V5.22759L26.8917 0H7.01841ZM7.01752 15.3845V5.22696L17.1957 15.3845H7.01752ZM13.3387 5.22696L23.5168 15.3845V5.22696H13.3387Z" fill="#178B76"/>
        <path fill-rule="evenodd" clip-rule="evenodd" d="M7.01841 0L0 7.05304V15.3836L3.64207 20.6115H23.516L30.5343 13.5504V5.22759L26.8917 0H7.01841ZM7.01752 15.3845V5.22696L17.1957 15.3845H7.01752ZM13.3387 5.22696L23.5168 15.3845V5.22696H13.3387Z" fill="#178B76"/>
        <path fill-rule="evenodd" clip-rule="evenodd" d="M7.01841 0L0 7.05304V15.3836L3.64207 20.6115H23.516L30.5343 13.5504V5.22759L26.8917 0H7.01841ZM7.01752 15.3845V5.22696L17.1957 15.3845H7.01752ZM13.3387 5.22696L23.5168 15.3845V5.22696H13.3387Z" fill="#178B76"/>
        <path fill-rule="evenodd" clip-rule="evenodd" d="M7.01841 0L0 7.05304V15.3836L3.64207 20.6115H23.516L30.5343 13.5504V5.22759L26.8917 0H7.01841ZM7.01752 15.3845V5.22696L17.1957 15.3845H7.01752ZM13.3387 5.22696L23.5168 15.3845V5.22696H13.3387Z" fill="#178B76"/>
        <path fill-rule="evenodd" clip-rule="evenodd" d="M7.01841 0L0 7.05304V15.3836L3.64207 20.6115H23.516L30.5343 13.5504V5.22759L26.8917 0H7.01841ZM7.01752 15.3845V5.22696L17.1957 15.3845H7.01752ZM13.3387 5.22696L23.5168 15.3845V5.22696H13.3387Z" fill="#178B76"/>
        <path fill-rule="evenodd" clip-rule="evenodd" d="M7.01841 0L0 7.05304V15.3836L3.64207 20.6115H23.516L30.5343 13.5504V5.22759L26.8917 0H7.01841ZM7.01752 15.3845V5.22696L17.1957 15.3845H7.01752ZM13.3387 5.22696L23.5168 15.3845V5.22696H13.3387Z" fill="#178B76"/>
        <path fill-rule="evenodd" clip-rule="evenodd" d="M7.01841 0L0 7.05304V15.3836L3.64207 20.6115H23.516L30.5343 13.5504V5.22759L26.8917 0H7.01841ZM7.01752 15.3845V5.22696L17.1957 15.3845H7.01752ZM13.3387 5.22696L23.5168 15.3845V5.22696H13.3387Z" fill="#178B76"/>
        <path fill-rule="evenodd" clip-rule="evenodd" d="M7.01841 0L0 7.05304V15.3836L3.64207 20.6115H23.516L30.5343 13.5504V5.22759L26.8917 0H7.01841ZM7.01752 15.3845V5.22696L17.1957 15.3845H7.01752ZM13.3387 5.22696L23.5168 15.3845V5.22696H13.3387Z" fill="#178B76"/>
    </g>
</svg>
